<svg xmlns="http://www.w3.org/2000/svg" viewBox="0 0 128.26 235.97"><defs><style>.cls-1,.cls-2{fill:#74cee2;}.cls-1{opacity:0.1;}</style></defs><title>route_z</title><g id="Layer_2" data-name="Layer 2"><g id="レイヤー_1" data-name="レイヤー 1"><path id="_Compound_Path_" data-name="&lt;Compound Path&gt;" class="cls-1" d="M27.59,219.49v6.12a10.25,10.25,0,0,0,20.5,0v-6.12a10.25,10.25,0,1,0-20.5,0Zm5.49,0a4.77,4.77,0,0,1,4.76-4.76H38a4.77,4.77,0,0,1,4.76,4.76v6.12A4.77,4.77,0,0,1,38,230.38h-.17a4.77,4.77,0,0,1-4.76-4.76Zm14.21-23.21h6.62a.85.85,0,0,0,.85-.85V176.21a.85.85,0,0,0-.85-.85H47.29a.85.85,0,0,0-.85.85v19.23A.85.85,0,0,0,47.29,196.29Zm38.76,15.3a8.7,8.7,0,0,0-2.2,6v17.79a.49.49,0,0,0,.51.53h4.48a.49.49,0,0,0,.51-.53v-3.15a.28.28,0,0,1,.3-.3h8.6a.49.49,0,0,0,.51-.53v-4.44a.49.49,0,0,0-.51-.53h-8.6a.28.28,0,0,1-.3-.3v-8.73a3.18,3.18,0,0,1,.71-2,2.85,2.85,0,0,1,2.09-.64h6.1a.49.49,0,0,0,.51-.53v-4.44a.49.49,0,0,0-.51-.53h-6.1A8.06,8.06,0,0,0,86.06,211.59Zm-30.63,7.91v15.85a.49.49,0,0,0,.51.53h4.48a.49.49,0,0,0,.51-.53V219.49a4.76,4.76,0,1,1,9.52,0v15.85a.49.49,0,0,0,.51.53h4.48a.49.49,0,0,0,.51-.53V219.49a10.25,10.25,0,1,0-20.5,0Zm50.57,0v6.12a10.25,10.25,0,0,0,20.5,0V220.4a.49.49,0,0,0-.51-.53H111.91c-.35,0-.42-.22-.42-.33v-.06a4.75,4.75,0,0,1,8.79-2.51v0a.65.65,0,0,0,.59.31h4.9c.37,0,.41-.24.39-.38a10.24,10.24,0,0,0-20.16,2.6Zm5.5,6.28c0-.15.1-.4.52-.4h8.46c.44,0,.52.27.53.41a4.75,4.75,0,0,1-9.5,0ZM96.65,137.88V118.65a.85.85,0,0,0-.85-.85H89.19a.85.85,0,0,0-.85.85v19.23a.85.85,0,0,0,.85.85H95.8A.85.85,0,0,0,96.65,137.88Zm31.61-9.61c0-.28-.29-.61-1.16-1l-22.92-9.07a.75.75,0,0,0-1.11.75v18.55a.75.75,0,0,0,1.11.75l22.92-9.07C128,128.88,128.26,128.55,128.26,128.27Zm-46.44,9.61V118.65a.85.85,0,0,0-.85-.85H74.35a.85.85,0,0,0-.85.85v19.23a.85.85,0,0,0,.85.85H81A.85.85,0,0,0,81.82,137.88Zm-80.66,47c-.87.34-1.16.67-1.16,1s.29.61,1.16,1l22.92,9.07a.75.75,0,0,0,1.11-.75V176.55a.75.75,0,0,0-1.11-.75Zm65.92-47V118.65a.85.85,0,0,0-.85-.85H2.92c-4.29,0-1.5,2.09-.73,2.72l.23.18h0l66.63,52.75c.27.22,2.27,1.89-.66,1.89H62a.85.85,0,0,0-.85.85v19.23a.85.85,0,0,0,.85.85h63.3c4.28,0,1.51-2.08.74-2.72l-.24-.19h0l-66.6-52.73h0l0,0c-.27-.22-2.27-1.89.66-1.89h6.35A.85.85,0,0,0,67.08,137.88ZM2.26,209.77v25.67a.49.49,0,0,0,.5.53H13.22a7.58,7.58,0,0,0,2.82-.43,8.81,8.81,0,0,0,5.17-8.3,8.4,8.4,0,0,0-4.95-8.09h0a.22.22,0,0,1-.11-.37l6.52-8.84h0l0,0c.11-.15.41-.65-.34-.65h-5.1a.73.73,0,0,0-.57.28l0,.06h0l-6.51,8.8a.75.75,0,0,1-.63.29H8.19a.38.38,0,0,1-.39-.39v-8.51a.49.49,0,0,0-.51-.53H2.76A.49.49,0,0,0,2.26,209.77Zm5.54,15a.47.47,0,0,1,.51-.49h5.23a1.36,1.36,0,0,1,.59.13,3.61,3.61,0,0,1,0,5.93,1.26,1.26,0,0,1-.57.12H8.28a.46.46,0,0,1-.48-.49v-5.19Zm31.28-28.46a.85.85,0,0,0,.85-.85V176.21a.85.85,0,0,0-.85-.85H32.46a.85.85,0,0,0-.85.85v19.23a.85.85,0,0,0,.85.85Z"/><path id="_Compound_Path_2" data-name="&lt;Compound Path&gt;" class="cls-2" d="M37.85,26.73A10.26,10.26,0,0,0,48.1,16.47V10.35a10.25,10.25,0,0,0-20.5,0v6.12A10.26,10.26,0,0,0,37.85,26.73ZM33.09,10.35a4.77,4.77,0,0,1,4.76-4.76H38a4.77,4.77,0,0,1,4.76,4.76v6.12A4.77,4.77,0,0,1,38,21.23h-.17a4.77,4.77,0,0,1-4.76-4.76ZM46.44,40.53V59.76a.85.85,0,0,0,.85.85h6.62a.85.85,0,0,0,.85-.85V40.53a.85.85,0,0,0-.85-.85H47.29A.85.85,0,0,0,46.44,40.53Zm45.7-13.78h6.1a.49.49,0,0,0,.51-.53V21.78a.49.49,0,0,0-.51-.53h-6.1a2.85,2.85,0,0,1-2.09-.64,3.18,3.18,0,0,1-.71-2V9.87a.28.28,0,0,1,.3-.3h8.6A.49.49,0,0,0,98.75,9V4.6a.49.49,0,0,0-.51-.53h-8.6a.28.28,0,0,1-.3-.3V.63A.49.49,0,0,0,88.84.1H84.36a.49.49,0,0,0-.51.53V18.42a8.7,8.7,0,0,0,2.2,6A8.06,8.06,0,0,0,92.14,26.75Zm-26.46,0A10.26,10.26,0,0,0,75.93,16.47V.63A.49.49,0,0,0,75.43.1H70.95a.49.49,0,0,0-.51.53V16.47a4.76,4.76,0,1,1-9.52,0V.63A.49.49,0,0,0,60.41.1H55.93a.49.49,0,0,0-.51.53V16.47A10.26,10.26,0,0,0,65.68,26.73Zm50.57,0a10.26,10.26,0,0,0,9.9-7.65c0-.15,0-.38-.39-.38h-4.9a.65.65,0,0,0-.59.31v0a4.75,4.75,0,0,1-8.79-2.51v-.06c0-.11.07-.33.42-.33H126a.49.49,0,0,0,.51-.53V10.36a10.25,10.25,0,0,0-20.5,0v6.12A10.26,10.26,0,0,0,116.25,26.74Zm0-21.14A4.76,4.76,0,0,1,121,10.19c0,.14-.09.41-.53.41H112c-.43,0-.51-.25-.52-.4A4.76,4.76,0,0,1,116.25,5.6ZM95.8,97.24H89.19a.85.85,0,0,0-.85.85v19.23a.85.85,0,0,0,.85.85H95.8a.85.85,0,0,0,.85-.85V98.09A.85.85,0,0,0,95.8,97.24Zm31.3,9.51-22.92-9.07a.75.75,0,0,0-1.11.75V117a.75.75,0,0,0,1.11.75l22.92-9.07c.87-.34,1.16-.67,1.16-1S128,107.09,127.1,106.75ZM81,97.24H74.35a.85.85,0,0,0-.85.85v19.23a.85.85,0,0,0,.85.85H81a.85.85,0,0,0,.85-.85V98.09A.85.85,0,0,0,81,97.24ZM24.08,60.17a.75.75,0,0,0,1.11-.75V40.87a.75.75,0,0,0-1.11-.75L1.16,49.19c-.87.34-1.16.67-1.16,1s.29.61,1.16,1ZM66.23,97.24H59.87c-2.93,0-.93-1.68-.66-1.89l0,0h0l66.6-52.73h0l.24-.19c.77-.64,3.54-2.72-.74-2.72H62a.85.85,0,0,0-.85.85V59.76a.85.85,0,0,0,.85.85h6.36c2.92,0,.93,1.67.66,1.89L2.42,115.26h0l-.23.18c-.77.64-3.56,2.72.73,2.72h63.3a.85.85,0,0,0,.85-.85V98.09A.85.85,0,0,0,66.23,97.24ZM2.76,26.73H7.29a.49.49,0,0,0,.51-.53V17.69a.38.38,0,0,1,.39-.39H9.51a.75.75,0,0,1,.63.29l6.51,8.8h0l0,.06a.73.73,0,0,0,.57.28h5.1c.75,0,.45-.5.34-.65l0,0h0L16.16,17.2a.22.22,0,0,1,.11-.37h0a8.4,8.4,0,0,0,4.95-8.09A8.81,8.81,0,0,0,16,.44,7.58,7.58,0,0,0,13.22,0H2.76a.49.49,0,0,0-.5.53V26.2A.49.49,0,0,0,2.76,26.73Zm5-18.1V6a.46.46,0,0,1,.48-.49h5.26a1.26,1.26,0,0,1,.57.12,3.12,3.12,0,0,1,1.56,3,3.13,3.13,0,0,1-1.55,3,1.36,1.36,0,0,1-.59.13H8.3a.47.47,0,0,1-.51-.49ZM32.46,39.68a.85.85,0,0,0-.85.85V59.76a.85.85,0,0,0,.85.85h6.62a.85.85,0,0,0,.85-.85V40.53a.85.85,0,0,0-.85-.85Z"/></g></g></svg>