<svg xmlns="http://www.w3.org/2000/svg" viewBox="0 0 121.56 55.07"><defs><style>.cls-1{fill:#fff;}.cls-2{fill:#41aa55;}</style></defs><title>zwave_alliance</title><g id="Layer_2" data-name="Layer 2"><g id="レイヤー_1" data-name="レイヤー 1"><path class="cls-1" d="M35.9,21.56A14.34,14.34,0,1,0,50.24,35.9,14.34,14.34,0,0,0,35.9,21.56m4.3,21.33H28l6.58-10.32H28.3L31,28.18H43l-6.4,10.18H43Zm-4.3-38V0A35.94,35.94,0,0,0,0,35.9H4.84A31.09,31.09,0,0,1,35.9,4.84m0,9.57V9.57A26.36,26.36,0,0,0,9.57,35.9h4.84A21.51,21.51,0,0,1,35.9,14.41M61.76,37.94l-1.15,5.17H55.87L51.45,27.95h5.47l1.18,6.68a20.56,20.56,0,0,1,.34,3h.13A14.73,14.73,0,0,1,58.92,35L60.37,28h3.84L65.65,35A15,15,0,0,1,66,37.62h.12a21.24,21.24,0,0,1,.34-3L67.66,28h5.47L68.69,43.12H63.94L62.8,37.94a15.11,15.11,0,0,1-.42-2.5h-.19a15,15,0,0,1-.43,2.5M76.9,28H83l5.29,15.16H82.4l-.49-1.91H77.8l-.47,1.91H71.48ZM81,37.62l-.46-1.72a15.47,15.47,0,0,1-.61-3.33H79.8a15.59,15.59,0,0,1-.62,3.33l-.47,1.72ZM85.76,28h5.9l1.6,5.49A17.52,17.52,0,0,1,94,37.06h.11a21.38,21.38,0,0,1,.79-3.45L96.59,28h5.79L96.6,43.15H91.53Zm17.79,0h10.13v4.11h-4.79v1.46h4.35v3.88h-4.35v1.59h4.92v4.11H103.53Z"/><path class="cls-1" d="M120.91,28.73a2.29,2.29,0,0,1,.65,1.63,2.26,2.26,0,0,1-.69,1.66,2.37,2.37,0,0,1-1.65.68,2.28,2.28,0,0,1-1.66-.71,2.31,2.31,0,0,1-.67-1.63,2.35,2.35,0,0,1,.71-1.68,2.26,2.26,0,0,1,1.62-.66,2.31,2.31,0,0,1,1.69.71m-3,.26a1.93,1.93,0,0,0-.58,1.38,1.93,1.93,0,0,0,1.9,1.91,1.94,1.94,0,0,0,1.35-.55A1.92,1.92,0,0,0,117.9,29m1.37,0c.74,0,1.11.26,1.11.74a.7.7,0,0,1-.55.69l.57,1.13h-.78l-.48-1h-.21v1h-.7V29Zm-.33,1.13h.25c.31,0,.46-.11.46-.33s-.16-.35-.5-.35h-.21Z"/><path class="cls-2" d="M55.52,53.38l-.58,1.46H52.62l3.24-8.43h2.39l3.17,8.43H59.09l-.55-1.46ZM57.06,49h0l-.91,2.68h1.82Z"/><path class="cls-2" d="M65.19,53h2.63v1.85H63V46.42h2.19Z"/><path class="cls-2" d="M71.62,53h2.63v1.85H69.43V46.42h2.19Z"/><path class="cls-2" d="M78,54.85H75.85V46.42H78Z"/><path class="cls-2" d="M82.51,53.38l-.58,1.46H79.61l3.24-8.43h2.39l3.17,8.43H86.08l-.55-1.46ZM84,49h0l-.91,2.68h1.82Z"/><path class="cls-2" d="M90,46.42h2.19l4,5.15h0V46.42H98.4v8.43H96.21l-4-5.16h0v5.16H90Z"/><path class="cls-2" d="M106.75,49.25a2.38,2.38,0,0,0-1.92-.93,2.22,2.22,0,0,0-2.25,2.34,2.19,2.19,0,0,0,2.28,2.29,2.52,2.52,0,0,0,1.89-.89v2.63a6.2,6.2,0,0,1-1.93.39,4.69,4.69,0,0,1-3.16-1.24,4.12,4.12,0,0,1-1.35-3.18,4.41,4.41,0,0,1,1.24-3.08,4.57,4.57,0,0,1,3.21-1.36,5.14,5.14,0,0,1,2,.42Z"/><path class="cls-2" d="M111.19,48.28v1.41h2.47v1.86h-2.47V53h2.6v1.85H109V46.42h4.79v1.85Z"/></g></g></svg>